<svg width="20" height="21" viewBox="0 0 20 21" fill="none" xmlns="http://www.w3.org/2000/svg">
<path fill-rule="evenodd" clip-rule="evenodd" d="M18 10.332C18 14.7503 14.4183 18.332 10 18.332C5.58172 18.332 2 14.7503 2 10.332C2 5.91375 5.58172 2.33203 10 2.33203C14.4183 2.33203 18 5.91375 18 10.332ZM11 6.33203C11 6.88432 10.5523 7.33203 10 7.33203C9.44772 7.33203 9 6.88432 9 6.33203C9 5.77975 9.44772 5.33203 10 5.33203C10.5523 5.33203 11 5.77975 11 6.33203ZM9 9.33203C8.44772 9.33203 8 9.77975 8 10.332C8 10.8843 8.44772 11.332 9 11.332V14.332C9 14.8843 9.44772 15.332 10 15.332H11C11.5523 15.332 12 14.8843 12 14.332C12 13.7797 11.5523 13.332 11 13.332V10.332C11 9.77975 10.5523 9.33203 10 9.33203H9Z" fill="currentColor"/>
</svg>
