<svg width="24" height="25" viewBox="0 0 24 25" fill="none" xmlns="http://www.w3.org/2000/svg">
<path d="M17.9815 19.34C16.6121 17.5327 14.4424 16.3652 12 16.3652C9.55761 16.3652 7.38789 17.5327 6.01846 19.34M17.9815 19.34C19.8335 17.6916 21 15.2896 21 12.6152C21 7.64467 16.9706 3.61523 12 3.61523C7.02944 3.61523 3 7.64467 3 12.6152C3 15.2896 4.1665 17.6916 6.01846 19.34M17.9815 19.34C16.3915 20.7554 14.2962 21.6152 12 21.6152C9.70383 21.6152 7.60851 20.7554 6.01846 19.34M15 10.3652C15 12.0221 13.6569 13.3652 12 13.3652C10.3431 13.3652 9 12.0221 9 10.3652C9 8.70838 10.3431 7.36523 12 7.36523C13.6569 7.36523 15 8.70838 15 10.3652Z" stroke="#9CA3AF" stroke-width="1.5" stroke-linecap="round" stroke-linejoin="round"/>
</svg>
