<svg width="24" height="25" viewBox="0 0 24 25" fill="none" xmlns="http://www.w3.org/2000/svg">
<path d="M10.3428 4.55529C10.4332 4.01282 10.9026 3.61523 11.4525 3.61523H12.5465C13.0964 3.61523 13.5658 4.01282 13.6562 4.55529L13.8052 5.4491C13.8759 5.87337 14.1888 6.21362 14.586 6.37855C14.9835 6.54356 15.4398 6.52152 15.79 6.27141L16.5275 5.74457C16.975 5.42492 17.5881 5.47566 17.9769 5.86452L18.7505 6.63807C19.1393 7.02694 19.1901 7.63995 18.8704 8.08746L18.3434 8.8253C18.0934 9.17535 18.0713 9.63156 18.2363 10.0289C18.4011 10.426 18.7413 10.7389 19.1655 10.8096L20.0595 10.9586C20.6019 11.049 20.9995 11.5183 20.9995 12.0683V13.1622C20.9995 13.7122 20.6019 14.1815 20.0595 14.2719L19.1656 14.4209C18.7414 14.4916 18.4011 14.8045 18.2362 15.2017C18.0712 15.5992 18.0932 16.0555 18.3433 16.4056L18.8701 17.1431C19.1897 17.5906 19.139 18.2036 18.7501 18.5925L17.9766 19.366C17.5877 19.7549 16.9747 19.8056 16.5272 19.486L15.7896 18.9591C15.4395 18.709 14.9833 18.687 14.5859 18.852C14.1887 19.0169 13.8759 19.3571 13.8052 19.7812L13.6562 20.6752C13.5658 21.2176 13.0964 21.6152 12.5465 21.6152H11.4525C10.9026 21.6152 10.4332 21.2176 10.3428 20.6752L10.1939 19.7814C10.1232 19.3571 9.81023 19.0169 9.413 18.8519C9.01559 18.6869 8.55926 18.709 8.20911 18.9591L7.47149 19.4859C7.02398 19.8056 6.41097 19.7549 6.0221 19.366L5.24855 18.5924C4.85968 18.2036 4.80895 17.5906 5.1286 17.143L5.65563 16.4052C5.90567 16.0551 5.92772 15.5989 5.76277 15.2016C5.59788 14.8045 5.25771 14.4916 4.83353 14.4209L3.93956 14.2719C3.3971 14.1815 2.99951 13.7122 2.99951 13.1622V12.0683C2.99951 11.5183 3.3971 11.049 3.93956 10.9586L4.83337 10.8096C5.25764 10.7389 5.5979 10.4259 5.76283 10.0287C5.92784 9.63128 5.9058 9.17493 5.65569 8.82477L5.12899 8.0874C4.80934 7.63989 4.86008 7.02688 5.24895 6.63801L6.0225 5.86446C6.41136 5.47559 7.02438 5.42486 7.47188 5.7445L8.20948 6.27136C8.55955 6.52141 9.01579 6.54346 9.41311 6.3785C9.81028 6.21361 10.1231 5.87342 10.1938 5.44923L10.3428 4.55529Z" stroke="#9CA3AF" stroke-width="1.5" stroke-linecap="round" stroke-linejoin="round"/>
<path d="M15.0002 12.6153C15.0002 14.2721 13.6571 15.6153 12.0002 15.6153C10.3434 15.6153 9.00021 14.2721 9.00021 12.6153C9.00021 10.9584 10.3434 9.61526 12.0002 9.61526C13.6571 9.61526 15.0002 10.9584 15.0002 12.6153Z" stroke="#9CA3AF" stroke-width="1.5" stroke-linecap="round" stroke-linejoin="round"/>
</svg>
