<svg width="20" height="20" viewBox="0 0 20 20" fill="none" xmlns="http://www.w3.org/2000/svg">
<path fill-rule="evenodd" clip-rule="evenodd" d="M8.25694 3.09858C9.02154 1.73928 10.9786 1.73928 11.7432 3.09858L17.3235 13.0191C18.0735 14.3523 17.11 15.9996 15.5804 15.9996H4.41978C2.89013 15.9996 1.9267 14.3523 2.67663 13.0191L8.25694 3.09858ZM11 12.9998C11 13.552 10.5523 13.9998 10 13.9998C9.44772 13.9998 9 13.552 9 12.9998C9 12.4475 9.44772 11.9998 10 11.9998C10.5523 11.9998 11 12.4475 11 12.9998ZM10 4.99976C9.44772 4.99976 9 5.44747 9 5.99976V8.99976C9 9.55204 9.44772 9.99976 10 9.99976C10.5523 9.99976 11 9.55204 11 8.99976V5.99976C11 5.44747 10.5523 4.99976 10 4.99976Z" fill="currentColor"/>
</svg>
