<svg width="24" height="24" viewBox="0 0 24 24" fill="none" xmlns="http://www.w3.org/2000/svg">
<path fill-rule="evenodd" clip-rule="evenodd" d="M12 22C17.5228 22 22 17.5228 22 12C22 6.47715 17.5228 2 12 2C6.47715 2 2 6.47715 2 12C2 17.5228 6.47715 22 12 22ZM16.7649 10.5749C16.9785 9.1248 15.8398 8.33621 14.2749 7.78302L14.762 5.81567L13.5251 5.50893L13.0505 7.42601C12.9695 7.40547 12.8891 7.38475 12.809 7.36411L12.8089 7.36408L12.8089 7.36408C12.5646 7.30115 12.3231 7.23893 12.0761 7.18436L12.5507 5.26727L11.2795 4.952L10.8049 6.86909L8.28162 6.2433L7.95793 7.55482C7.95793 7.55482 8.8928 7.7614 8.85945 7.7784C9.36053 7.91233 9.45419 8.2322 9.43398 8.47428L8.8678 10.7039L8.092 13.8416C8.02817 13.9898 7.86792 14.1998 7.52521 14.1162C7.53987 14.1309 6.61511 13.8792 6.61511 13.8792L6.05119 15.2573L8.50103 15.9182L8.01653 17.8754L9.24557 18.1802L9.73007 16.223C9.92811 16.279 10.128 16.3259 10.3214 16.3713L10.3214 16.3713L10.3214 16.3713L10.3215 16.3713L10.3215 16.3713C10.4662 16.4052 10.6074 16.4383 10.7414 16.4738L10.2569 18.431L11.4882 18.7363L11.9727 16.7792C14.0886 17.1964 15.6732 17.0687 16.3289 15.2195C16.8564 13.7452 16.2979 12.882 15.1725 12.2935C16.0006 12.1325 16.6022 11.6304 16.7649 10.5749ZM11.0752 10.8172L11.0134 10.7991L11.5999 8.44676C11.6704 8.46491 11.7603 8.48532 11.8644 8.50895L11.8645 8.50897L11.8646 8.50897C12.7463 8.70911 14.6441 9.13985 14.3388 10.3789C14.0103 11.6823 11.8154 11.0354 11.0752 10.8172ZM10.0545 14.637L10.1617 14.6682C11.0736 14.9344 13.6612 15.69 13.9714 14.3959C14.2936 13.1504 11.9712 12.6011 10.9315 12.3551C10.8175 12.3281 10.7189 12.3048 10.641 12.2846L10.0545 14.637Z" fill="currentColor"/>
</svg>
