<svg width="24" height="24" viewBox="0 0 24 24" fill="none" xmlns="http://www.w3.org/2000/svg">
<circle cx="12" cy="12" r="10" fill="white"/>
<path d="M12.2521 17.1811C11.2983 17.1811 10.4773 16.9879 9.78906 16.6016C9.10488 16.2112 8.57765 15.6598 8.20739 14.9474C7.83712 14.2311 7.65199 13.3839 7.65199 12.4059C7.65199 11.4521 7.83712 10.6149 8.20739 9.89453C8.57765 9.17412 9.09884 8.61269 9.77095 8.21023C10.4471 7.80776 11.2399 7.60653 12.1495 7.60653C12.7612 7.60653 13.3307 7.70514 13.858 7.90234C14.3892 8.09553 14.852 8.38731 15.2464 8.7777C15.6449 9.16809 15.9548 9.65909 16.1761 10.2507C16.3975 10.8383 16.5082 11.5265 16.5082 12.3153V13.0217H8.67827V11.4279H14.0874C14.0874 11.0576 14.0069 10.7296 13.8459 10.4439C13.6849 10.1581 13.4615 9.93478 13.1758 9.77379C12.8941 9.60878 12.5661 9.52628 12.1918 9.52628C11.8014 9.52628 11.4553 9.61683 11.1534 9.79794C10.8556 9.97502 10.6222 10.2145 10.4531 10.5163C10.2841 10.8142 10.1976 11.1462 10.1935 11.5124V13.0277C10.1935 13.4865 10.2781 13.8829 10.4471 14.217C10.6201 14.551 10.8636 14.8086 11.1776 14.9897C11.4915 15.1708 11.8638 15.2614 12.2944 15.2614C12.5801 15.2614 12.8417 15.2211 13.0792 15.1406C13.3166 15.0601 13.5199 14.9394 13.6889 14.7784C13.858 14.6174 13.9867 14.4202 14.0753 14.1868L16.4538 14.3438C16.3331 14.9152 16.0856 15.4143 15.7113 15.8409C15.341 16.2635 14.8621 16.5935 14.2745 16.831C13.6909 17.0644 13.0168 17.1811 12.2521 17.1811Z" fill="currentColor"/>
</svg>
